<?xml version="1.0" encoding="utf-8"?>
<?xml-stylesheet type="text/xsl" href="rss1.xsl"?>
<rss version="2.0" xmlns:atom="http://www.w3.org/2005/Atom" xmlns:content="http://purl.org/rss/1.0/modules/content/" xmlns:dc="http://purl.org/dc/elements/1.1/" xmlns:media="http://search.yahoo.com/mrss/">
<channel>
 <title>Getty</title>
 <link>http://www.gettyimg.com/</link>
 <atom:link href="http://www.gettyimg.com/" rel="self" type="application/rss+xml" />

 
                <item>
                <title><![CDATA[【Cinema Center】WEB-DL - A.Cinderella.Story.2004.AMZN.WEB.DL.1080p.MULTI.AUDIO.DD5.1.x264-mariellisaa]]></title>
                <link><![CDATA[https://sharemania.us/threads/a-cinderella-story-2004-amzn-web-dl-1080p-multi-audio-dd5-1-x264-mariellisaa.228347/]]></link>
                <description><![CDATA[<article>
<blockquote class="messageText SelectQuoteContainer ugc baseHtml">
<span style="font-family: 'Times New Roman'"><img src="https://i.imgur.com/mfJaHqh.jpg" class="bbCodeImage LbImage" alt="[​IMG]" data-url="https://i.imgur.com/mfJaHqh.jpg" style=""><br>
<br>
<div class="ToggleTriggerAnchor bbCodeSpoilerContainer">
<button type="button" class="button bbCodeSpoilerButton ToggleTrigger Tooltip JsOnly" data-target="> .SpoilerTarget"><span>Spoiler: <span class="SpoilerTitle">MediaInfo</span></span></button>
<div class="SpoilerTarget bbCodeSpoilerText">General<br>
Unique ID : 90191088709135641551708367562187049741 (0x43DA2BFE1C7F472E7605D445986D8B0D)<br>
Complete name : C:\Users\user\Desktop\A.Cinderella.Story.2004.AMZN.WEB.DL.1080p.MULTI.AUDIO.DD5.1.x264-mariellisaa.mkv<br>
Format : Matroska<br>
Format version : Version 4<br>
File size : 11.6 GiB<br>
Duration : 1 h 35 min<br>
Overall bit rate : 17.4 Mb/s<br>
Movie name : A Cinderella Story<br>
Encoded date : UTC 2023-09-14 06:22:12<br>
Writing application : mkvmerge v78.0 ('Running') 64-bit<br>
Writing library : libebml v1.4.4 + libmatroska v1.7.1 / Lavf60.3.100<br>
Cover : Yes<br>
Attachments : cover.png<br>
<br>
Video<br>
ID : 1<br>
Format : AVC<br>
Format/Info : Advanced Video Codec<br>
Format profile : High@L4<br>
Format settings : CABAC / 4 Ref Frames<br>
Format settings, CABAC : Yes<br>
Format settings, Reference frames : 4 frames<br>
Codec ID : V_MPEG4/ISO/AVC<br>
Duration : 1 h 35 min<br>
Bit rate : 13.4 Mb/s<br>
Width : 1 920 pixels<br>
Height : 1 080 pixels<br>
Display aspect ratio : 16:9<br>
Frame rate mode : Constant<br>
Frame rate : 23.976 (24000/1001) FPS<br>
Color space : YUV<br>
Chroma subsampling : 4:2:0<br>
Bit depth : 8 bits<br>
Scan type : Progressive<br>
Bits/(Pixel*Frame) : 0.269<br>
Stream size : 8.89 GiB (77%)<br>
Default : Yes<br>
Forced : No<br>
Color range : Limited<br>
Color primaries : BT.709<br>
Transfer characteristics : BT.709<br>
Matrix coefficients : BT.709<br>
<br>
Audio #1<br>
ID : 2<br>
Format : E-AC-3<br>
Format/Info : Enhanced AC-3<br>
Commercial name : Dolby Digital Plus<br>
Codec ID : A_EAC3<br>
Duration : 1 h 35 min<br>
Bit rate mode : Constant<br>
Bit rate : 640 kb/s<br>
Channel(s) : 6 channels<br>
Channel layout : L R C LFE Ls Rs<br>
Sampling rate : 48.0 kHz<br>
Frame rate : 31.250 FPS (1536 SPF)<br>
Compression mode : Lossy<br>
Stream size : 435 MiB (4%)<br>
Language : English<br>
Service kind : Complete Main<br>
Default : Yes<br>
Forced : No<br>
<br>
Audio #2<br>
ID : 3<br>
Format : E-AC-3<br>
Format/Info : Enhanced AC-3<br>
Commercial name : Dolby Digital Plus<br>
Codec ID : A_EAC3<br>
Duration : 1 h 35 min<br>
Bit rate mode : Constant<br>
Bit rate : 224 kb/s<br>
Channel(s) : 2 channels<br>
Channel layout : L R<br>
Sampling rate : 48.0 kHz<br>
Frame rate : 31.250 FPS (1536 SPF)<br>
Compression mode : Lossy<br>
Stream size : 152 MiB (1%)<br>
Language : French<br>
Service kind : Complete Main<br>
Default : Yes<br>
Forced : No<br>
<br>
Audio #3<br>
ID : 4<br>
Format : E-AC-3<br>
Format/Info : Enhanced AC-3<br>
Commercial name : Dolby Digital Plus<br>
Codec ID : A_EAC3<br>
Duration : 1 h 35 min<br>
Bit rate mode : Constant<br>
Bit rate : 224 kb/s<br>
Channel(s) : 2 channels<br>
Channel layout : L R<br>
Sampling rate : 48.0 kHz<br>
Frame rate : 31.250 FPS (1536 SPF)<br>
Compression mode : Lossy<br>
Stream size : 152 MiB (1%)<br>
Language : French<br>
Service kind : Complete Main<br>
Default : Yes<br>
Forced : No<br>
<br>
Audio #4<br>
ID : 5<br>
Format : AC-3<br>
Format/Info : Audio Coding 3<br>
Commercial name : Dolby Digital<br>
Codec ID : A_AC3<br>
Duration : 1 h 35 min<br>
Bit rate mode : Constant<br>
Bit rate : 384 kb/s<br>
Channel(s) : 6 channels<br>
Channel layout : L R C LFE Ls Rs<br>
Sampling rate : 48.0 kHz<br>
Frame rate : 31.250 FPS (1536 SPF)<br>
Compression mode : Lossy<br>
Delay relative to video : 200 ms<br>
Stream size : 261 MiB (2%)<br>
Language : Spanish<br>
Service kind : Complete Main<br>
Default : Yes<br>
Forced : No<br>
<br>
Audio #5<br>
ID : 6<br>
Format : AC-3<br>
Format/Info : Audio Coding 3<br>
Commercial name : Dolby Digital<br>
Codec ID : A_AC3<br>
Duration : 1 h 35 min<br>
Bit rate mode : Constant<br>
Bit rate : 384 kb/s<br>
Channel(s) : 6 channels<br>
Channel layout : L R C LFE Ls Rs<br>
Sampling rate : 48.0 kHz<br>
Frame rate : 31.250 FPS (1536 SPF)<br>
Compression mode : Lossy<br>
Delay relative to video : 200 ms<br>
Stream size : 261 MiB (2%)<br>
Language : Portuguese<br>
Service kind : Complete Main<br>
Default : Yes<br>
Forced : No<br>
<br>
Audio #6<br>
ID : 7<br>
Format : AC-3<br>
Format/Info : Audio Coding 3<br>
Commercial name : Dolby Digital<br>
Codec ID : A_AC3<br>
Duration : 1 h 35 min<br>
Bit rate mode : Constant<br>
Bit rate : 640 kb/s<br>
Channel(s) : 6 channels<br>
Channel layout : L R C LFE Ls Rs<br>
Sampling rate : 48.0 kHz<br>
Frame rate : 31.250 FPS (1536 SPF)<br>
Compression mode : Lossy<br>
Stream size : 435 MiB (4%)<br>
Language : German<br>
Service kind : Complete Main<br>
Default : Yes<br>
Forced : No<br>
<br>
Audio #7<br>
ID : 8<br>
Format : AC-3<br>
Format/Info : Audio Coding 3<br>
Commercial name : Dolby Digital<br>
Codec ID : A_AC3<br>
Duration : 1 h 35 min<br>
Bit rate mode : Constant<br>
Bit rate : 320 kb/s<br>
Channel(s) : 6 channels<br>
Channel layout : L R C LFE Ls Rs<br>
Sampling rate : 44.1 kHz<br>
Frame rate : 28.711 FPS (1536 SPF)<br>
Compression mode : Lossy<br>
Stream size : 218 MiB (2%)<br>
Language : Polish<br>
Service kind : Complete Main<br>
Default : Yes<br>
Forced : No<br>
<br>
Audio #8<br>
ID : 9<br>
Format : AAC LC<br>
Format/Info : Advanced Audio Codec Low Complexity<br>
Codec ID : A_AAC-2<br>
Duration : 1 h 35 min<br>
Bit rate : 224 kb/s<br>
Channel(s) : 6 channels<br>
Channel layout : C L R Ls Rs LFE<br>
Sampling rate : 48.0 kHz<br>
Frame rate : 46.875 FPS (1024 SPF)<br>
Compression mode : Lossy<br>
Stream size : 152 MiB (1%)<br>
Language : Italian<br>
Default : Yes<br>
Forced : No<br>
<br>
Audio #9<br>
ID : 10<br>
Format : AC-3<br>
Format/Info : Audio Coding 3<br>
Commercial name : Dolby Digital<br>
Codec ID : A_AC3<br>
Duration : 1 h 35 min<br>
Bit rate mode : Constant<br>
Bit rate : 192 kb/s<br>
Channel(s) : 2 channels<br>
Channel layout : L R<br>
Sampling rate : 48.0 kHz<br>
Frame rate : 31.250 FPS (1536 SPF)<br>
Compression mode : Lossy<br>
Stream size : 131 MiB (1%)<br>
Language : Czech<br>
Service kind : Complete Main<br>
Default : Yes<br>
Forced : No<br>
<br>
Audio #10<br>
ID : 11<br>
Format : AC-3<br>
Format/Info : Audio Coding 3<br>
Commercial name : Dolby Digital<br>
Codec ID : A_AC3<br>
Duration : 1 h 35 min<br>
Bit rate mode : Constant<br>
Bit rate : 192 kb/s<br>
Channel(s) : 2 channels<br>
Channel layout : L R<br>
Sampling rate : 48.0 kHz<br>
Frame rate : 31.250 FPS (1536 SPF)<br>
Compression mode : Lossy<br>
Delay relative to video : 200 ms<br>
Stream size : 131 MiB (1%)<br>
Language : Slovak<br>
Service kind : Complete Main<br>
Default : Yes<br>
Forced : No<br>
<br>
Audio #11<br>
ID : 12<br>
Format : AC-3<br>
Format/Info : Audio Coding 3<br>
Commercial name : Dolby Digital<br>
Codec ID : A_AC3<br>
Duration : 1 h 35 min<br>
Bit rate mode : Constant<br>
Bit rate : 192 kb/s<br>
Channel(s) : 2 channels<br>
Channel layout : L R<br>
Sampling rate : 48.0 kHz<br>
Frame rate : 31.250 FPS (1536 SPF)<br>
Compression mode : Lossy<br>
Delay relative to video : 200 ms<br>
Stream size : 131 MiB (1%)<br>
Language : Ukrainian<br>
Service kind : Complete Main<br>
Default : Yes<br>
Forced : No<br>
<br>
Audio #12<br>
ID : 13<br>
Format : AC-3<br>
Format/Info : Audio Coding 3<br>
Commercial name : Dolby Digital<br>
Codec ID : A_AC3<br>
Duration : 1 h 35 min<br>
Bit rate mode : Constant<br>
Bit rate : 384 kb/s<br>
Channel(s) : 6 channels<br>
Channel layout : L R C LFE Ls Rs<br>
Sampling rate : 48.0 kHz<br>
Frame rate : 31.250 FPS (1536 SPF)<br>
Compression mode : Lossy<br>
Stream size : 261 MiB (2%)<br>
Language : Russian<br>
Service kind : Complete Main<br>
Default : Yes<br>
Forced : No<br>
<br>
Text #1<br>
ID : 14<br>
Format : UTF-8<br>
Codec ID : S_TEXT/UTF8<br>
Codec ID/Info : UTF-8 Plain Text<br>
Duration : 1 h 30 min<br>
Bit rate : 71 b/s<br>
Frame rate : 0.230 FPS<br>
Count of elements : 1241<br>
Stream size : 47.3 KiB (0%)<br>
Language : English<br>
Default : Yes<br>
Forced : No<br>
<br>
Text #2<br>
ID : 15<br>
Format : UTF-8<br>
Codec ID : S_TEXT/UTF8<br>
Codec ID/Info : UTF-8 Plain Text<br>
Duration : 1 h 34 min<br>
Bit rate : 65 b/s<br>
Frame rate : 0.190 FPS<br>
Count of elements : 1075<br>
Stream size : 45.2 KiB (0%)<br>
Language : French<br>
Default : No<br>
Forced : No<br>
<br>
Text #3<br>
ID : 16<br>
Format : UTF-8<br>
Codec ID : S_TEXT/UTF8<br>
Codec ID/Info : UTF-8 Plain Text<br>
Duration : 5 min 48 s<br>
Bit rate : 3 b/s<br>
Frame rate : 0.023 FPS<br>
Count of elements : 8<br>
Stream size : 148 Bytes (0%)<br>
Language : French<br>
Default : No<br>
Forced : No<br>
<br>
Text #4<br>
ID : 17<br>
Format : UTF-8<br>
Codec ID : S_TEXT/UTF8<br>
Codec ID/Info : UTF-8 Plain Text<br>
Duration : 12 min 29 s<br>
Bit rate : 47 b/s<br>
Frame rate : 0.136 FPS<br>
Count of elements : 102<br>
Stream size : 4.31 KiB (0%)<br>
Language : Albanian<br>
Default : No<br>
Forced : No<br>
<br>
Text #5<br>
ID : 18<br>
Format : UTF-8<br>
Codec ID : S_TEXT/UTF8<br>
Codec ID/Info : UTF-8 Plain Text<br>
Duration : 1 h 30 min<br>
Bit rate : 81 b/s<br>
Frame rate : 0.187 FPS<br>
Count of elements : 1012<br>
Stream size : 54.0 KiB (0%)<br>
Language : Arabic<br>
Default : No<br>
Forced : No<br>
<br>
Text #6<br>
ID : 19<br>
Format : UTF-8<br>
Codec ID : S_TEXT/UTF8<br>
Codec ID/Info : UTF-8 Plain Text<br>
Duration : 1 h 30 min<br>
Bit rate : 54 b/s<br>
Frame rate : 0.199 FPS<br>
Count of elements : 1079<br>
Stream size : 36.2 KiB (0%)<br>
Language : Bosnian<br>
Default : No<br>
Forced : No<br>
<br>
Text #7<br>
ID : 20<br>
Format : UTF-8<br>
Codec ID : S_TEXT/UTF8<br>
Codec ID/Info : UTF-8 Plain Text<br>
Duration : 1 h 30 min<br>
Bit rate : 111 b/s<br>
Frame rate : 0.204 FPS<br>
Count of elements : 1108<br>
Stream size : 73.8 KiB (0%)<br>
Language : Bulgarian<br>
Default : No<br>
Forced : No<br>
<br>
Text #8<br>
ID : 21<br>
Format : UTF-8<br>
Codec ID : S_TEXT/UTF8<br>
Codec ID/Info : UTF-8 Plain Text<br>
Duration : 1 h 34 min<br>
Bit rate : 56 b/s<br>
Frame rate : 0.189 FPS<br>
Count of elements : 1074<br>
Stream size : 38.8 KiB (0%)<br>
Language : Croatian<br>
Default : No<br>
Forced : No<br>
<br>
Text #9<br>
ID : 22<br>
Format : UTF-8<br>
Codec ID : S_TEXT/UTF8<br>
Codec ID/Info : UTF-8 Plain Text<br>
Duration : 1 h 30 min<br>
Bit rate : 61 b/s<br>
Frame rate : 0.196 FPS<br>
Count of elements : 1066<br>
Stream size : 40.6 KiB (0%)<br>
Language : Czech<br>
Default : No<br>
Forced : No<br>
<br>
Text #10<br>
ID : 23<br>
Format : UTF-8<br>
Codec ID : S_TEXT/UTF8<br>
Codec ID/Info : UTF-8 Plain Text<br>
Duration : 1 h 34 min<br>
Bit rate : 53 b/s<br>
Frame rate : 0.156 FPS<br>
Count of elements : 884<br>
Stream size : 37.0 KiB (0%)<br>
Language : Danish<br>
Default : No<br>
Forced : No<br>
<br>
Text #11<br>
ID : 24<br>
Format : UTF-8<br>
Codec ID : S_TEXT/UTF8<br>
Codec ID/Info : UTF-8 Plain Text<br>
Duration : 1 h 30 min<br>
Bit rate : 60 b/s<br>
Frame rate : 0.188 FPS<br>
Count of elements : 1016<br>
Stream size : 39.8 KiB (0%)<br>
Language : Dutch<br>
Default : No<br>
Forced : No<br>
<br>
Text #12<br>
ID : 25<br>
Format : UTF-8<br>
Codec ID : S_TEXT/UTF8<br>
Codec ID/Info : UTF-8 Plain Text<br>
Duration : 1 h 30 min<br>
Bit rate : 66 b/s<br>
Frame rate : 0.198 FPS<br>
Count of elements : 1071<br>
Stream size : 43.6 KiB (0%)<br>
Language : Estonian<br>
Default : No<br>
Forced : No<br>
<br>
Text #13<br>
ID : 26<br>
Format : UTF-8<br>
Codec ID : S_TEXT/UTF8<br>
Codec ID/Info : UTF-8 Plain Text<br>
Duration : 1 h 34 min<br>
Bit rate : 54 b/s<br>
Frame rate : 0.173 FPS<br>
Count of elements : 981<br>
Stream size : 37.6 KiB (0%)<br>
Language : Finnish<br>
Default : No<br>
Forced : No<br>
<br>
Text #14<br>
ID : 27<br>
Format : UTF-8<br>
Codec ID : S_TEXT/UTF8<br>
Codec ID/Info : UTF-8 Plain Text<br>
Duration : 1 h 34 min<br>
Bit rate : 66 b/s<br>
Frame rate : 0.219 FPS<br>
Count of elements : 1241<br>
Stream size : 46.3 KiB (0%)<br>
Language : German<br>
Default : No<br>
Forced : No<br>
<br>
Text #15<br>
ID : 28<br>
Format : UTF-8<br>
Codec ID : S_TEXT/UTF8<br>
Codec ID/Info : UTF-8 Plain Text<br>
Duration : 1 h 30 min<br>
Bit rate : 94 b/s<br>
Frame rate : 0.202 FPS<br>
Count of elements : 1089<br>
Stream size : 62.3 KiB (0%)<br>
Language : grc<br>
Default : No<br>
Forced : No<br>
<br>
Text #16<br>
ID : 29<br>
Format : UTF-8<br>
Codec ID : S_TEXT/UTF8<br>
Codec ID/Info : UTF-8 Plain Text<br>
Duration : 1 h 30 min<br>
Bit rate : 85 b/s<br>
Frame rate : 0.198 FPS<br>
Count of elements : 1067<br>
Stream size : 56.6 KiB (0%)<br>
Language : Hebrew<br>
Default : No<br>
Forced : No<br>
<br>
Text #17<br>
ID : 30<br>
Format : UTF-8<br>
Codec ID : S_TEXT/UTF8<br>
Codec ID/Info : UTF-8 Plain Text<br>
Duration : 1 h 34 min<br>
Bit rate : 62 b/s<br>
Frame rate : 0.193 FPS<br>
Count of elements : 1095<br>
Stream size : 43.3 KiB (0%)<br>
Language : Icelandic<br>
Default : No<br>
Forced : No<br>
<br>
Text #18<br>
ID : 31<br>
Format : UTF-8<br>
Codec ID : S_TEXT/UTF8<br>
Codec ID/Info : UTF-8 Plain Text<br>
Duration : 1 h 30 min<br>
Bit rate : 75 b/s<br>
Frame rate : 0.197 FPS<br>
Count of elements : 1074<br>
Stream size : 50.0 KiB (0%)<br>
Language : Indonesian<br>
Default : No<br>
Forced : No<br>
<br>
Text #19<br>
ID : 32<br>
Format : UTF-8<br>
Codec ID : S_TEXT/UTF8<br>
Codec ID/Info : UTF-8 Plain Text<br>
Duration : 1 h 34 min<br>
Bit rate : 61 b/s<br>
Frame rate : 0.195 FPS<br>
Count of elements : 1104<br>
Stream size : 42.8 KiB (0%)<br>
Language : Italian<br>
Default : No<br>
Forced : No<br>
<br>
Text #20<br>
ID : 33<br>
Format : UTF-8<br>
Codec ID : S_TEXT/UTF8<br>
Codec ID/Info : UTF-8 Plain Text<br>
Duration : 1 h 30 min<br>
Bit rate : 88 b/s<br>
Frame rate : 0.216 FPS<br>
Count of elements : 1168<br>
Stream size : 58.1 KiB (0%)<br>
Language : Japanese<br>
Default : No<br>
Forced : No<br>
<br>
Text #21<br>
ID : 34<br>
Format : UTF-8<br>
Codec ID : S_TEXT/UTF8<br>
Codec ID/Info : UTF-8 Plain Text<br>
Duration : 1 h 30 min<br>
Bit rate : 60 b/s<br>
Frame rate : 0.205 FPS<br>
Count of elements : 1109<br>
Stream size : 40.2 KiB (0%)<br>
Language : Korean<br>
Default : No<br>
Forced : No<br>
<br>
Text #22<br>
ID : 35<br>
Format : UTF-8<br>
Codec ID : S_TEXT/UTF8<br>
Codec ID/Info : UTF-8 Plain Text<br>
Duration : 1 h 34 min<br>
Bit rate : 49 b/s<br>
Frame rate : 0.141 FPS<br>
Count of elements : 800<br>
Stream size : 34.1 KiB (0%)<br>
Language : Latvian<br>
Default : No<br>
Forced : No<br>
<br>
Text #23<br>
ID : 36<br>
Format : UTF-8<br>
Codec ID : S_TEXT/UTF8<br>
Codec ID/Info : UTF-8 Plain Text<br>
Duration : 1 h 34 min<br>
Bit rate : 61 b/s<br>
Frame rate : 0.193 FPS<br>
Count of elements : 1095<br>
Stream size : 42.3 KiB (0%)<br>
Language : Lithuanian<br>
Default : No<br>
Forced : No<br>
<br>
Text #24<br>
ID : 37<br>
Format : UTF-8<br>
Codec ID : S_TEXT/UTF8<br>
Codec ID/Info : UTF-8 Plain Text<br>
Duration : 1 h 30 min<br>
Bit rate : 79 b/s<br>
Frame rate : 0.120 FPS<br>
Count of elements : 649<br>
Stream size : 52.8 KiB (0%)<br>
Language : Macedonian<br>
Default : No<br>
Forced : No<br>
<br>
Text #25<br>
ID : 38<br>
Format : UTF-8<br>
Codec ID : S_TEXT/UTF8<br>
Codec ID/Info : UTF-8 Plain Text<br>
Duration : 1 h 30 min<br>
Bit rate : 83 b/s<br>
Frame rate : 0.198 FPS<br>
Count of elements : 1073<br>
Stream size : 55.5 KiB (0%)<br>
Language : Chinese<br>
Default : No<br>
Forced : No<br>
<br>
Text #26<br>
ID : 39<br>
Format : UTF-8<br>
Codec ID : S_TEXT/UTF8<br>
Codec ID/Info : UTF-8 Plain Text<br>
Duration : 45 min 20 s<br>
Bit rate : 57 b/s<br>
Frame rate : 0.172 FPS<br>
Count of elements : 467<br>
Stream size : 19.1 KiB (0%)<br>
Language : Norwegian<br>
Default : No<br>
Forced : No<br>
<br>
Text #27<br>
ID : 40<br>
Format : UTF-8<br>
Codec ID : S_TEXT/UTF8<br>
Codec ID/Info : UTF-8 Plain Text<br>
Duration : 1 h 34 min<br>
Bit rate : 105 b/s<br>
Frame rate : 0.196 FPS<br>
Count of elements : 1111<br>
Stream size : 72.8 KiB (0%)<br>
Language : Persian<br>
Default : No<br>
Forced : No<br>
<br>
Text #28<br>
ID : 41<br>
Format : UTF-8<br>
Codec ID : S_TEXT/UTF8<br>
Codec ID/Info : UTF-8 Plain Text<br>
Duration : 1 h 30 min<br>
Bit rate : 54 b/s<br>
Frame rate : 0.194 FPS<br>
Count of elements : 1049<br>
Stream size : 36.1 KiB (0%)<br>
Language : Polish<br>
Default : No<br>
Forced : No<br>
<br>
Text #29<br>
ID : 42<br>
Format : UTF-8<br>
Codec ID : S_TEXT/UTF8<br>
Codec ID/Info : UTF-8 Plain Text<br>
Duration : 1 h 30 min<br>
Bit rate : 69 b/s<br>
Frame rate : 0.232 FPS<br>
Count of elements : 1262<br>
Stream size : 46.1 KiB (0%)<br>
Language : Portuguese<br>
Default : No<br>
Forced : No<br>
<br>
Text #30<br>
ID : 43<br>
Format : UTF-8<br>
Codec ID : S_TEXT/UTF8<br>
Codec ID/Info : UTF-8 Plain Text<br>
Duration : 1 h 34 min<br>
Bit rate : 60 b/s<br>
Frame rate : 0.190 FPS<br>
Count of elements : 1074<br>
Stream size : 41.6 KiB (0%)<br>
Language : Romanian<br>
Default : No<br>
Forced : No<br>
<br>
Text #31<br>
ID : 44<br>
Format : UTF-8<br>
Codec ID : S_TEXT/UTF8<br>
Codec ID/Info : UTF-8 Plain Text<br>
Duration : 1 h 30 min<br>
Bit rate : 131 b/s<br>
Frame rate : 0.226 FPS<br>
Count of elements : 1227<br>
Stream size : 87.0 KiB (0%)<br>
Language : Russian<br>
Default : No<br>
Forced : No<br>
<br>
Text #32<br>
ID : 45<br>
Format : UTF-8<br>
Codec ID : S_TEXT/UTF8<br>
Codec ID/Info : UTF-8 Plain Text<br>
Duration : 1 h 30 min<br>
Bit rate : 164 b/s<br>
Frame rate : 0.194 FPS<br>
Count of elements : 1050<br>
Stream size : 109 KiB (0%)<br>
Language : Sinhala<br>
Default : No<br>
Forced : No<br>
<br>
Text #33<br>
ID : 46<br>
Format : UTF-8<br>
Codec ID : S_TEXT/UTF8<br>
Codec ID/Info : UTF-8 Plain Text<br>
Duration : 1 h 30 min<br>
Bit rate : 57 b/s<br>
Frame rate : 0.196 FPS<br>
Count of elements : 1064<br>
Stream size : 37.9 KiB (0%)<br>
Language : Slovak<br>
Default : No<br>
Forced : No<br>
<br>
Text #34<br>
ID : 47<br>
Format : UTF-8<br>
Codec ID : S_TEXT/UTF8<br>
Codec ID/Info : UTF-8 Plain Text<br>
Duration : 1 h 30 min<br>
Bit rate : 45 b/s<br>
Frame rate : 0.149 FPS<br>
Count of elements : 809<br>
Stream size : 30.3 KiB (0%)<br>
Language : Slovenian<br>
Default : No<br>
Forced : No<br>
<br>
Text #35<br>
ID : 48<br>
Format : UTF-8<br>
Codec ID : S_TEXT/UTF8<br>
Codec ID/Info : UTF-8 Plain Text<br>
Duration : 1 h 30 min<br>
Bit rate : 243 b/s<br>
Frame rate : 0.196 FPS<br>
Count of elements : 1059<br>
Stream size : 160 KiB (0%)<br>
Language : Spanish<br>
Default : No<br>
Forced : No<br>
<br>
Text #36<br>
ID : 49<br>
Format : UTF-8<br>
Codec ID : S_TEXT/UTF8<br>
Codec ID/Info : UTF-8 Plain Text<br>
Duration : 1 h 30 min<br>
Bit rate : 67 b/s<br>
Frame rate : 0.198 FPS<br>
Count of elements : 1067<br>
Stream size : 44.4 KiB (0%)<br>
Language : Swedish<br>
Default : No<br>
Forced : No<br>
<br>
Text #37<br>
ID : 50<br>
Format : UTF-8<br>
Codec ID : S_TEXT/UTF8<br>
Codec ID/Info : UTF-8 Plain Text<br>
Duration : 1 h 30 min<br>
Bit rate : 94 b/s<br>
Frame rate : 0.202 FPS<br>
Count of elements : 1093<br>
Stream size : 62.3 KiB (0%)<br>
Language : Thai<br>
Default : No<br>
Forced : No<br>
<br>
Text #38<br>
ID : 51<br>
Format : UTF-8<br>
Codec ID : S_TEXT/UTF8<br>
Codec ID/Info : UTF-8 Plain Text<br>
Duration : 1 h 34 min<br>
Bit rate : 66 b/s<br>
Frame rate : 0.196 FPS<br>
Count of elements : 1111<br>
Stream size : 46.3 KiB (0%)<br>
Language : Turkish<br>
Default : No<br>
Forced : No<br>
<br>
Text #39<br>
ID : 52<br>
Format : UTF-8<br>
Codec ID : S_TEXT/UTF8<br>
Codec ID/Info : UTF-8 Plain Text<br>
Duration : 1 h 30 min<br>
Bit rate : 81 b/s<br>
Frame rate : 0.198 FPS<br>
Count of elements : 1070<br>
Stream size : 53.4 KiB (0%)<br>
Language : Vietnamese<br>
Default : No<br>
Forced : No<br>
<br>
Menu<br>
00:00:00.000 : en:1. Studio Logos<br>
00:00:15.000 : en:2. Sam Begins Her Story, Opening Credits<br>
00:02:24.000 : en:3. Sam's Dad Marries Fiona<br>
00:02:54.000 : en:4. Sam's Dad Reads a Story<br>
00:05:36.000 : en:5. Sam Awakens to Fiona's Demands<br>
00:08:43.000 : en:6. Rhonda Keeps the Restaurant in Order<br>
00:10:22.000 : en:7. Sam Picks Up Carter for School<br>
00:11:30.000 : en:8. Sam Tries to Park<br>
00:13:39.000 : en:9. Shelby and Crew Part the Halls<br>
00:14:47.000 : en:10. Sam and Austin Text<br>
00:17:52.000 : en:11. Sam Confides in Carter<br>
00:19:45.000 : en:12. Austin's Dad Talks about College<br>
00:21:50.000 : en:13. Fiona Forces Sam to Work<br>
00:23:01.000 : en:14. Fiona and Rhonda Exchange Pleasantries<br>
00:26:49.000 : en:15. Carter Comes to Take Sam to the Dance<br>
00:28:59.000 : en:16. Rhonda Takes Sam to Find a Costume<br>
00:30:18.000 : en:17. Rhonda Loans Sam a Dress<br>
00:31:14.000 : en:18. Everyone Arrives<br>
00:32:54.000 : en:19. Sam Makes Her Entrance<br>
00:34:04.000 : en:20. Sam Gets Ready to Meet Her Mystery Man<br>
00:38:06.000 : en:21. Sam and Austin Get to Know One Another<br>
00:40:58.000 : en:22. Sam and Austin Dance<br>
00:44:29.000 : en:23. Sam Leaves<br>
00:46:26.000 : en:24. Sam Hurries Back to the Diner<br>
00:49:23.000 : en:25. Rhonda and the Staff Cover for Sam<br>
00:50:55.000 : en:26. Carter Makes Sure His Dad's Car Is Okay<br>
00:52:07.000 : en:27. Austin Searches for Mystery Girl<br>
00:54:44.000 : en:28. Shelby Describes Her Mystery Man<br>
00:57:14.000 : en:29. Austin's Friends Try to Help<br>
00:58:42.000 : en:30. Fiona Hides Mail from Sam<br>
01:01:23.000 : en:31. Austin Gets His Acceptance Letter and Gets Visitors<br>
01:05:01.000 : en:32. Austin Unknowingly Confides in His Cinderella<br>
01:07:16.000 : en:33. Gabriella and Brianna Conspire<br>
01:09:23.000 : en:34. The Pep Rally Begins<br>
01:12:55.000 : en:35. Sam Feels Devastated<br>
01:15:49.000 : en:36. Sam Finds Inner Strength<br>
01:19:01.000 : en:37. Sam Moves In<br>
01:19:48.000 : en:38. Everyone Prepares for the Big Game<br>
01:22:34.000 : en:39. The Big Game<br>
01:27:41.000 : en:40. Sam Sums Up Her Story<br>
01:30:19.000 : en:41. Sam and Austin Live Happily Ever After</div>
</div></span><br>
<div class="ToggleTriggerAnchor bbCodeSpoilerContainer">
<button type="button" class="button bbCodeSpoilerButton ToggleTrigger Tooltip JsOnly" data-target="> .SpoilerTarget"><span>Spoiler: <span class="SpoilerTitle">Languages</span></span></button>
<div class="SpoilerTarget bbCodeSpoilerText"><span style="font-family: 'Times New Roman'"><b>Audio:</b></span><br>
<ul>
<li><span style="font-family: 'Times New Roman'">English</span></li>
<li><span style="font-family: 'Times New Roman'">French</span></li>
<li><span style="font-family: 'Times New Roman'">Spanish</span></li>
<li><span style="font-family: 'Times New Roman'">Portuguese</span></li>
<li><span style="font-family: 'Times New Roman'">German</span></li>
<li><span style="font-family: 'Times New Roman'">Polish</span></li>
<li><span style="font-family: 'Times New Roman'">Italian</span></li>
<li><span style="font-family: 'Times New Roman'">Czech</span></li>
<li><span style="font-family: 'Times New Roman'">Slovak</span></li>
<li><span style="font-family: 'Times New Roman'">Ukrainian</span></li>
<li><span style="font-family: 'Times New Roman'">Russian</span></li>
</ul><span style="font-family: 'Times New Roman'"><br>
<b>Subtitles:</b></span><br>
<ul>
<li><span style="font-family: 'Times New Roman'">English</span></li>
<li><span style="font-family: 'Times New Roman'">French</span></li>
<li><span style="font-family: 'Times New Roman'">Albanian</span></li>
<li><span style="font-family: 'Times New Roman'">Arabic</span></li>
<li><span style="font-family: 'Times New Roman'">Bosnian</span></li>
<li><span style="font-family: 'Times New Roman'">Bulgarian</span></li>
<li><span style="font-family: 'Times New Roman'">Croatian</span></li>
<li><span style="font-family: 'Times New Roman'">Czech</span></li>
<li><span style="font-family: 'Times New Roman'">Danish</span></li>
<li><span style="font-family: 'Times New Roman'">Dutch</span></li>
<li><span style="font-family: 'Times New Roman'">Finnish</span></li>
<li><span style="font-family: 'Times New Roman'">German</span></li>
<li><span style="font-family: 'Times New Roman'">Greek</span></li>
<li><span style="font-family: 'Times New Roman'">Hebrew</span></li>
<li><span style="font-family: 'Times New Roman'">Icelandic.</span></li>
<li><span style="font-family: 'Times New Roman'">Indonesian</span></li>
<li><span style="font-family: 'Times New Roman'">Italian</span></li>
<li><span style="font-family: 'Times New Roman'">Japanese</span></li>
<li><span style="font-family: 'Times New Roman'">Korean</span></li>
<li><span style="font-family: 'Times New Roman'">Latvian</span></li>
<li><span style="font-family: 'Times New Roman'">Lithuanian</span></li>
<li><span style="font-family: 'Times New Roman'">Macedonian</span></li>
<li><span style="font-family: 'Times New Roman'">Chinese</span></li>
<li><span style="font-family: 'Times New Roman'">Norwegian</span></li>
<li><span style="font-family: 'Times New Roman'">Persian</span></li>
<li><span style="font-family: 'Times New Roman'">Polish.srt</span></li>
<li><span style="font-family: 'Times New Roman'">Portugese</span></li>
<li><span style="font-family: 'Times New Roman'">Romanian</span></li>
<li><span style="font-family: 'Times New Roman'">Russian</span></li>
<li><span style="font-family: 'Times New Roman'">Sinhala</span></li>
<li><span style="font-family: 'Times New Roman'">Slovak</span></li>
<li><span style="font-family: 'Times New Roman'">Slovenian</span></li>
<li><span style="font-family: 'Times New Roman'">Spanish</span></li>
<li><span style="font-family: 'Times New Roman'">Swedish</span></li>
<li><span style="font-family: 'Times New Roman'">Thai</span></li>
<li><span style="font-family: 'Times New Roman'">Turkish</span></li>
<li><span style="font-family: 'Times New Roman'">Vietnamese</span></li>
</ul><span style="font-family: 'Times New Roman'"><br>
</span></div>
</div><span style="font-family: 'Times New Roman'"><br>
<br>
Ripped, sync by mariellisaa<br>
<br>
Next upload: Another Cinderella Story (2008)....<br>
<br>
<div class="bbCodeBlock bbCodeVfcHH HiddenContent">
<div class="attribution type">Hidden Content:</div>
<blockquote>You must either reply or click 'Like' to see the hidden information contained here.</blockquote>
</div></span>
<div class="messageTextEndMarker">&nbsp;</div>
</blockquote>
</article>]]></description>
                <author><![CDATA[mariellisaa]]></author>
                </item>

                </channel></rss>